# xmcd
# 
# Track frame offsets:
#     150
#     15172
#     29560
#     44850
#     59069
#     76380
#     90490
#     104812
#     118688
#     132170
#     146914
#     161124
#     173742
#     188904
#     203249
#     219326
#     233555
#     251720
# 
# Disc length: 3513
# 
# Revision: 2
# Processed by: cddbd v1.5.2PL0 Copyright (c) Steve Scherf et al.
# Submitted via: fre:ac v1.0.31
# 
DISCID=090db712
DTITLE=Ella Fitzgerald and Louis Armstrong - Ella and Louis - CD1
DYEAR=2000
DGENRE=Jazz
TTITLE0=Louis Armstrong - St. James Infirmary
TTITLE1=Ella Fitzgerald - How High The Moon
TTITLE2=Louis Armstrong - Ain't Misbehavin'
TTITLE3=Ella Fitzgerald - This Time It's Real
TTITLE4=Louis Armstrong - I Love The Guy (Live)
TTITLE5=Ella Fitzgerald - Swinging On The Reservation
TTITLE6=Louis Armstrong - Big Butter And Egg Man
TTITLE7=Ella Fitzgerald - It's Foxy
TTITLE8=Louis Armstrong - Snake Rag
TTITLE9=Ella Fitzgerald - Undecided
TTITLE10=Louis Armstrong - What Did I Do To Be So Black And Blue? (Live)
TTITLE11=Ella Fitzgerald - Big Boy Blue
TTITLE12=Louis Armstrong - New Orleans Stomp
TTITLE13=Ella Fitzgerald - You're Gonna Lose Your Gal
TTITLE14=Louis Armstrong - I Can't Give You Anything But Love
TTITLE15=Ella Fitzgerald - Love You're Just A Laugh
TTITLE16=Louis Armstrong - Back Ole Town Blues
TTITLE17=Ella Fitzgerald - When My Sugar Walks Down The Street
EXTD=ID3G: 0
EXTT0=
EXTT1=
EXTT2=
EXTT3=
EXTT4=
EXTT5=
EXTT6=
EXTT7=
EXTT8=
EXTT9=
EXTT10=
EXTT11=
EXTT12=
EXTT13=
EXTT14=
EXTT15=
EXTT16=
EXTT17=
PLAYORDER=
